<?xml version="1.0" encoding="UTF-8"?>
<!-- Generator: Adobe Illustrator 16.0.0, SVG Export Plug-In . SVG Version: 6.00 Build 0)  -->
<!DOCTYPE svg PUBLIC "-//W3C//DTD SVG 1.1//EN" "http://www.w3.org/Graphics/SVG/1.1/DTD/svg11.dtd">
<svg version="1.1" xmlns="http://www.w3.org/2000/svg" xmlns:xlink="http://www.w3.org/1999/xlink" x="0px" y="0px" width="108px" height="108px" viewBox="0 0 108 108" enable-background="new 0 0 108 108" xml:space="preserve">
<g id="person">
	<circle id="base_2_" fill-rule="evenodd" clip-rule="evenodd" fill="#CDD1D4" cx="53.705" cy="54" r="54"/>
	<path fill-rule="evenodd" clip-rule="evenodd" fill="#FFFFFF" d="M90.859,90.277c-9.445,9.695-22.637,15.725-37.24,15.725   c-14.703,0-27.969-6.111-37.428-15.92c6.744-4.217,24.695-6.236,27.422-14.277c0,0-1.664-4.521-2.006-9.371   c0,0-5.18-3.279-5.494-10.789c-0.314-7.516,1.719-3.654,1.719-3.654s-7.025-25.468,15.633-25.468c4.168,0,3.625,1.669,5.588,1.669   c16.678,0,10.926,23.168,10.926,23.168s1.596-1.031,1.545,2.091c-0.043,2.656-1.469,10.521-5.766,12.726   c0,0-1.457,6.514-2.734,9.74C64.74,82.979,83.672,85.697,90.859,90.277z"/>
</g>
</svg>